<svg width="86" height="86" viewBox="0 0 86 86" fill="none" xmlns="http://www.w3.org/2000/svg">
<circle cx="43" cy="43" r="43" fill="#14B8A6"/>
<path d="M59.6667 52.417C60.8612 52.417 61.8681 52.8337 62.6876 53.667C63.507 54.5003 63.9098 55.4725 63.8959 56.5837L47.1667 62.8337L32.5834 58.667V39.917H36.6459L51.7917 45.5212C52.875 45.9517 53.4167 46.7295 53.4167 47.8545C53.4167 48.5073 53.1806 49.0767 52.7084 49.5628C52.2362 50.0489 51.6389 50.3059 50.9167 50.3337H45.0834L41.4375 48.9378L40.75 50.8962L45.0834 52.417H59.6667ZM51.3334 23.7295C52.8056 22.0212 54.6806 21.167 56.9584 21.167C58.8473 21.167 60.4445 21.8614 61.7501 23.2503C63.0556 24.6392 63.7501 26.2364 63.8334 28.042C63.8334 29.4725 63.1389 31.1809 61.7501 33.167C60.3612 35.1531 58.9931 36.8128 57.6459 38.1462C56.2987 39.4795 54.1945 41.4587 51.3334 44.0837C48.4445 41.4587 46.3195 39.4795 44.9584 38.1462C43.5973 36.8128 42.2292 35.1531 40.8542 33.167C39.4792 31.1809 38.8056 29.4725 38.8334 28.042C38.8334 26.1531 39.507 24.5559 40.8542 23.2503C42.2014 21.9448 43.8264 21.2503 45.7292 21.167C47.9514 21.167 49.8195 22.0212 51.3334 23.7295ZM20.05 39.917H28.4167V62.8337H20.05V39.917Z" fill="#F2F2F2"/>
</svg>
