<svg width="63" height="64" viewBox="0 0 63 64" fill="none" xmlns="http://www.w3.org/2000/svg">
<path d="M63 32C63 49.397 48.897 63.5 31.5 63.5C14.103 63.5 0 49.397 0 32C0 14.603 14.103 0.5 31.5 0.5C48.897 0.5 63 14.603 63 32Z" fill="#F2F2F2"/>
<path d="M29.7773 43.334C29.9185 43.8148 30.2115 44.2369 30.6127 44.5372C31.0138 44.8375 31.5014 44.9998 32.0024 44.9998C32.5035 44.9998 32.9911 44.8375 33.3922 44.5372C33.7933 44.2369 34.0864 43.8148 34.2275 43.334" stroke="#390C7C" stroke-width="2" stroke-linecap="round" stroke-linejoin="round"/>
<path d="M32 22.5001V20" stroke="#390C7C" stroke-width="2" stroke-linecap="round" stroke-linejoin="round"/>
<path d="M31.9999 22.5C34.2101 22.5 36.3298 23.378 37.8927 24.9409C39.4555 26.5037 40.3335 28.6234 40.3335 30.8336C40.3335 38.6628 42.0003 40.0007 42.0003 40.0007H21.9995C21.9995 40.0007 23.6662 37.8717 23.6662 30.8336C23.6662 28.6234 24.5442 26.5037 26.1071 24.9409C27.67 23.378 29.7897 22.5 31.9999 22.5V22.5Z" stroke="#390C7C" stroke-width="2" stroke-linecap="round" stroke-linejoin="round"/>
</svg>
