<svg width="25" height="22" viewBox="0 0 25 22" fill="none" xmlns="http://www.w3.org/2000/svg">
<path d="M11.4488 2.99843C12.1473 5.10535 11.4342 7.2319 9.85658 7.75249C8.27897 8.27308 6.43272 6.98634 5.73427 4.87943C5.03583 2.77252 5.74893 0.645957 7.32654 0.125368C8.90415 -0.395221 10.7504 0.891518 11.4488 2.99843ZM4.89907 8.18959C5.82219 9.78083 5.59752 11.6324 4.40087 12.3199C3.20423 13.0075 1.48498 12.2757 0.566737 10.6845C-0.351502 9.09326 -0.13171 7.24173 1.06493 6.55416C2.26157 5.86658 3.98083 6.59836 4.89907 8.18959ZM3.37518 18.1397C5.93453 11.2002 10.4818 9.43704 12.499 9.43704C14.5162 9.43704 19.0634 11.2002 21.6227 18.1397C21.7986 18.6161 21.8767 19.1269 21.8767 19.6376V19.7162C21.8767 20.9833 20.8559 22.0098 19.5958 22.0098C19.0341 22.0098 18.4773 21.941 17.9351 21.8035L13.637 20.723C12.8897 20.5364 12.1082 20.5364 11.3609 20.723L7.06279 21.8035C6.52064 21.941 5.96383 22.0098 5.40214 22.0098C4.14201 22.0098 3.1212 20.9833 3.1212 19.7162V19.6376C3.1212 19.1269 3.19935 18.6161 3.37518 18.1397ZM20.597 12.3199C19.4004 11.6324 19.1757 9.78083 20.0989 8.18959C21.022 6.59836 22.7363 5.86658 23.933 6.55416C25.1296 7.24173 25.3543 9.09326 24.4312 10.6845C23.5081 12.2757 21.7937 13.0075 20.597 12.3199ZM15.1413 7.75249C13.5637 7.2319 12.8506 5.10535 13.5491 2.99843C14.2475 0.891518 16.0938 -0.395221 17.6714 0.125368C19.249 0.645957 19.9621 2.77252 19.2636 4.87943C18.5652 6.98634 16.719 8.27308 15.1413 7.75249Z" fill="#277359"/>
</svg>
