<svg width="50" height="45" viewBox="0 0 50 45" fill="none" xmlns="http://www.w3.org/2000/svg">
<path d="M37.5 5V0H32.5V5H17.5V0H12.5V5H5C3.67392 5 2.40215 5.52678 1.46447 6.46447C0.526784 7.40215 0 8.67392 0 10L0 40C0 41.3261 0.526784 42.5979 1.46447 43.5355C2.40215 44.4732 3.67392 45 5 45H45C46.3261 45 47.5979 44.4732 48.5355 43.5355C49.4732 42.5979 50 41.3261 50 40V10C50 8.67392 49.4732 7.40215 48.5355 6.46447C47.5979 5.52678 46.3261 5 45 5H37.5ZM45 40H5V17.5H45V40ZM40 25H30V35H40V25Z" fill="#60A5FA"/>
</svg>
