<svg width="86" height="86" viewBox="0 0 86 86" fill="none" xmlns="http://www.w3.org/2000/svg">
<circle cx="43" cy="43" r="43" fill="#14B8A6"/>
<path d="M64 18H59V17C59 16.2044 58.6839 15.4413 58.1213 14.8787C57.5587 14.3161 56.7957 14 56 14C55.2043 14 54.4413 14.3161 53.8787 14.8787C53.3161 15.4413 53 16.2044 53 17V18H35V17C35 16.2044 34.6839 15.4413 34.1213 14.8787C33.5587 14.3161 32.7956 14 32 14C31.2044 14 30.4413 14.3161 29.8787 14.8787C29.3161 15.4413 29 16.2044 29 17V18H24C22.6739 18 21.4021 18.5268 20.4645 19.4645C19.5268 20.4021 19 21.6739 19 23V63C19 64.3261 19.5268 65.5979 20.4645 66.5355C21.4021 67.4732 22.6739 68 24 68H64C65.3261 68 66.5979 67.4732 67.5355 66.5355C68.4732 65.5979 69 64.3261 69 63V23C69 21.6739 68.4732 20.4021 67.5355 19.4645C66.5979 18.5268 65.3261 18 64 18ZM29 24C29 24.7956 29.3161 25.5587 29.8787 26.1213C30.4413 26.6839 31.2044 27 32 27C32.7956 27 33.5587 26.6839 34.1213 26.1213C34.6839 25.5587 35 24.7956 35 24H53C53 24.7956 53.3161 25.5587 53.8787 26.1213C54.4413 26.6839 55.2043 27 56 27C56.7957 27 57.5587 26.6839 58.1213 26.1213C58.6839 25.5587 59 24.7956 59 24H63V30H25V24H29ZM25 62V36H63V62H25ZM40 42V56C40 56.7957 39.6839 57.5587 39.1213 58.1213C38.5587 58.6839 37.7956 59 37 59C36.2044 59 35.4413 58.6839 34.8787 58.1213C34.3161 57.5587 34 56.7957 34 56V46.83C33.2862 47.0643 32.5104 47.0222 31.8261 46.7121C31.1418 46.4019 30.5988 45.8463 30.3044 45.1551C30.01 44.4639 29.9857 43.6874 30.2363 42.9791C30.4868 42.2709 30.994 41.6824 31.6575 41.33L35.6575 39.33C36.1139 39.1016 36.621 38.9934 37.1309 39.0157C37.6408 39.038 38.1366 39.1899 38.5713 39.4573C39.0061 39.7246 39.3655 40.0984 39.6155 40.5433C39.8655 40.9883 39.9978 41.4896 40 42ZM55.3725 50.47L52.975 53H54C54.7957 53 55.5587 53.3161 56.1213 53.8787C56.6839 54.4413 57 55.2043 57 56C57 56.7957 56.6839 57.5587 56.1213 58.1213C55.5587 58.6839 54.7957 59 54 59H46C45.4137 58.9998 44.8404 58.8278 44.3508 58.5053C43.8612 58.1828 43.4768 57.7239 43.2452 57.1854C43.0135 56.6468 42.9448 56.0522 43.0474 55.475C43.15 54.8977 43.4194 54.3632 43.8225 53.9375L50.8625 46.5C50.9515 46.3483 50.9989 46.1759 51 46C51.0006 45.7794 50.9282 45.5648 50.7941 45.3896C50.66 45.2144 50.4717 45.0885 50.2586 45.0315C50.0455 44.9744 49.8195 44.9894 49.6159 45.0742C49.4122 45.1589 49.2422 45.3086 49.1325 45.5C48.727 46.1735 48.0733 46.661 47.3121 46.8574C46.5509 47.0539 45.7429 46.9437 45.0621 46.5505C44.3813 46.1574 43.882 45.5127 43.6717 44.7552C43.4614 43.9977 43.5568 43.1879 43.9375 42.5C44.7079 41.1653 45.8972 40.1222 47.3209 39.5324C48.7446 38.9426 50.3232 38.8391 51.8117 39.2379C53.3002 39.6368 54.6155 40.5157 55.5536 41.7383C56.4917 42.9609 57.0001 44.459 57 46C57.0046 47.5215 56.5092 49.0025 55.59 50.215C55.5228 50.3043 55.4501 50.3895 55.3725 50.47Z" fill="#F2F2F2"/>
</svg>
