<svg width="24" height="25" viewBox="0 0 24 25" fill="none" xmlns="http://www.w3.org/2000/svg">
<g opacity="0.5">
<path fill-rule="evenodd" clip-rule="evenodd" d="M5 6.5H19C19.3862 6.5 19.7213 6.71897 19.8879 7.03954L12.5547 11.9283C12.2188 12.1523 11.7812 12.1523 11.4453 11.9283L4.11209 7.03953C4.27868 6.71896 4.61377 6.5 5 6.5ZM4 9.3685V17.5C4 18.0523 4.44772 18.5 5 18.5H19C19.5523 18.5 20 18.0523 20 17.5V9.36852L13.6641 13.5924C12.6564 14.2642 11.3436 14.2642 10.3359 13.5924L4 9.3685ZM2 7.5C2 5.84315 3.34315 4.5 5 4.5H19C20.6569 4.5 22 5.84315 22 7.5V17.5C22 19.1569 20.6569 20.5 19 20.5H5C3.34315 20.5 2 19.1569 2 17.5V7.5Z" fill="#35383F"/>
</g>
</svg>
