<svg width="86" height="86" viewBox="0 0 86 86" fill="none" xmlns="http://www.w3.org/2000/svg">
<circle cx="43" cy="43" r="43" fill="#14B8A6"/>
<path d="M40.8977 26.9773C42.2946 31.1912 40.8684 35.4443 37.7132 36.4855C34.5579 37.5266 30.8654 34.9532 29.4685 30.7393C28.0717 26.5255 29.4979 22.2724 32.6531 21.2312C35.8083 20.19 39.5008 22.7635 40.8977 26.9773ZM27.7981 37.3597C29.6444 40.5421 29.195 44.2452 26.8017 45.6203C24.4085 46.9955 20.97 45.5319 19.1335 42.3495C17.297 39.167 17.7366 35.4639 20.1299 34.0888C22.5231 32.7136 25.9617 34.1772 27.7981 37.3597ZM24.7504 57.2599C29.8691 43.3808 38.9635 39.8546 42.9979 39.8546C47.0323 39.8546 56.1268 43.3808 61.2455 57.2599C61.5971 58.2127 61.7534 59.2342 61.7534 60.2558V60.4129C61.7534 62.9471 59.7118 65 57.1915 65C56.0682 65 54.9546 64.8625 53.8703 64.5875L45.274 62.4265C43.7794 62.0533 42.2164 62.0533 40.7219 62.4265L32.1256 64.5875C31.0413 64.8625 29.9277 65 28.8043 65C26.284 65 24.2424 62.9471 24.2424 60.4129V60.2558C24.2424 59.2342 24.3987 58.2127 24.7504 57.2599ZM59.1941 45.6203C56.8008 44.2452 56.3515 40.5421 58.1977 37.3597C60.044 34.1772 63.4727 32.7136 65.866 34.0888C68.2593 35.4639 68.7086 39.167 66.8624 42.3495C65.0161 45.5319 61.5874 46.9955 59.1941 45.6203ZM48.2827 36.4855C45.1275 35.4443 43.7013 31.1912 45.0981 26.9773C46.495 22.7635 50.1875 20.19 53.3428 21.2312C56.498 22.2724 57.9242 26.5255 56.5273 30.7393C55.1304 34.9532 51.4379 37.5266 48.2827 36.4855Z" fill="#F2F2F2"/>
</svg>
