<svg width="50" height="44" viewBox="0 0 50 44" fill="none" xmlns="http://www.w3.org/2000/svg">
<path d="M22.8977 5.97733C24.2946 10.1912 22.8684 14.4443 19.7132 15.4855C16.5579 16.5266 12.8654 13.9532 11.4685 9.73933C10.0717 5.5255 11.4979 1.27238 14.6531 0.231205C17.8083 -0.809974 21.5008 1.7635 22.8977 5.97733ZM9.79813 16.3597C11.6444 19.5421 11.195 23.2452 8.80175 24.6203C6.40846 25.9955 2.96995 24.5319 1.13347 21.3495C-0.703003 18.167 -0.263421 14.4639 2.12986 13.0888C4.52314 11.7136 7.96166 13.1772 9.79813 16.3597ZM6.75036 36.2599C11.8691 22.3808 20.9635 18.8546 24.9979 18.8546C29.0323 18.8546 38.1268 22.3808 43.2455 36.2599C43.5971 37.2127 43.7534 38.2342 43.7534 39.2558V39.4129C43.7534 41.9471 41.7118 44 39.1915 44C38.0682 44 36.9546 43.8625 35.8703 43.5875L27.274 41.4265C25.7794 41.0533 24.2164 41.0533 22.7219 41.4265L14.1256 43.5875C13.0413 43.8625 11.9277 44 10.8043 44C8.28402 44 6.2424 41.9471 6.2424 39.4129V39.2558C6.2424 38.2342 6.3987 37.2127 6.75036 36.2599ZM41.1941 24.6203C38.8008 23.2452 38.3515 19.5421 40.1977 16.3597C42.044 13.1772 45.4727 11.7136 47.866 13.0888C50.2593 14.4639 50.7086 18.167 48.8624 21.3495C47.0161 24.5319 43.5874 25.9955 41.1941 24.6203ZM30.2827 15.4855C27.1275 14.4443 25.7013 10.1912 27.0981 5.97733C28.495 1.7635 32.1875 -0.809974 35.3428 0.231205C38.498 1.27238 39.9242 5.5255 38.5273 9.73933C37.1304 13.9532 33.4379 16.5266 30.2827 15.4855Z" fill="#60A5FA"/>
</svg>
