<svg width="86" height="86" viewBox="0 0 86 86" fill="none" xmlns="http://www.w3.org/2000/svg">
<circle cx="43" cy="43" r="43" fill="#14B8A6"/>
<path d="M60.1875 32.7185H53.123C52.9169 30.1753 51.761 27.8028 49.8853 26.073C48.0096 24.3432 45.5516 23.3828 43 23.3828C40.4484 23.3828 37.9904 24.3432 36.1147 26.073C34.239 27.8028 33.0831 30.1753 32.877 32.7185H25.8125C24.7765 32.7185 23.7829 33.13 23.0504 33.8626C22.3178 34.5952 21.9062 35.5887 21.9062 36.6247V60.0622C21.9062 61.0982 22.3178 62.0918 23.0504 62.8244C23.7829 63.5569 24.7765 63.9685 25.8125 63.9685H60.1875C61.2235 63.9685 62.2171 63.5569 62.9496 62.8244C63.6822 62.0918 64.0938 61.0982 64.0938 60.0622V36.6247C64.0938 35.5887 63.6822 34.5952 62.9496 33.8626C62.2171 33.13 61.2235 32.7185 60.1875 32.7185ZM43 28.031C44.315 28.0311 45.5858 28.505 46.5798 29.3659C47.5738 30.2268 48.2243 31.417 48.4121 32.7185H37.5879C37.7757 31.417 38.4262 30.2268 39.4202 29.3659C40.4142 28.505 41.685 28.0311 43 28.031ZM59.4062 59.281H26.5938V37.406H32.8438V39.7497C32.8438 40.3713 33.0907 40.9675 33.5302 41.407C33.9698 41.8466 34.5659 42.0935 35.1875 42.0935C35.8091 42.0935 36.4052 41.8466 36.8448 41.407C37.2843 40.9675 37.5312 40.3713 37.5312 39.7497V37.406H48.4688V39.7497C48.4688 40.3713 48.7157 40.9675 49.1552 41.407C49.5948 41.8466 50.1909 42.0935 50.8125 42.0935C51.4341 42.0935 52.0302 41.8466 52.4698 41.407C52.9093 40.9675 53.1562 40.3713 53.1562 39.7497V37.406H59.4062V59.281Z" fill="#F2F2F2"/>
</svg>
