<svg width="71" height="63" viewBox="0 0 71 63" fill="none" xmlns="http://www.w3.org/2000/svg">
<path d="M32.2663 9.27051C34.222 15.1375 32.2253 21.0591 27.808 22.5088C23.3907 23.9584 18.2212 20.3753 16.2655 14.5084C14.3099 8.64142 16.3065 2.71975 20.7239 1.27011C25.1412 -0.179536 30.3107 3.40355 32.2663 9.27051ZM13.9269 23.7259C16.5117 28.1569 15.8826 33.3127 12.532 35.2274C9.1814 37.142 4.36748 35.1043 1.79641 30.6733C-0.77466 26.2423 -0.159244 21.0865 3.19135 19.1719C6.54195 17.2572 11.3559 19.2949 13.9269 23.7259ZM9.66005 51.4333C16.8262 32.1093 29.5585 27.1996 35.2066 27.1996C40.8548 27.1996 53.587 32.1093 60.7532 51.4333C61.2455 52.7599 61.4644 54.1822 61.4644 55.6045V55.8233C61.4644 59.3517 58.6061 62.2099 55.0777 62.2099C53.505 62.2099 51.9459 62.0185 50.4279 61.6355L38.3931 58.6268C36.3007 58.1071 34.1126 58.1071 32.0201 58.6268L19.9854 61.6355C18.4673 62.0185 16.9083 62.2099 15.3356 62.2099C11.8072 62.2099 8.9489 59.3517 8.9489 55.8233V55.6045C8.9489 54.1822 9.16772 52.7599 9.66005 51.4333ZM57.8813 35.2274C54.5307 33.3127 53.9016 28.1569 56.4863 23.7259C59.0711 19.2949 63.8713 17.2572 67.2219 19.1719C70.5725 21.0865 71.2016 26.2423 68.6169 30.6733C66.0321 35.1043 61.2319 37.142 57.8813 35.2274ZM42.6053 22.5088C38.188 21.0591 36.1913 15.1375 38.147 9.27051C40.1026 3.40355 45.2721 -0.179536 49.6894 1.27011C54.1067 2.71975 56.1034 8.64142 54.1478 14.5084C52.1921 20.3753 47.0226 23.9584 42.6053 22.5088Z" fill="#14B8A6"/>
</svg>
