<svg width="25" height="27" viewBox="0 0 25 27" fill="none" xmlns="http://www.w3.org/2000/svg">
<path d="M20.3709 0.0560138C20.5633 0.115635 20.7385 0.220889 20.8815 0.362809C21.0245 0.504729 21.1311 0.679112 21.1922 0.871104L21.2297 1.01987L22.9062 9.96336C23.0345 10.6518 23.0962 11.331 23.0912 12.0011L23.0762 12.5011H23.7512C24.0699 12.5015 24.3764 12.6235 24.6081 12.8422C24.8397 13.061 24.9792 13.3599 24.9978 13.678C25.0165 13.9961 24.913 14.3093 24.7085 14.5537C24.504 14.798 24.2139 14.955 23.8975 14.9927L23.7512 15.0014H22.6336C22.4969 15.444 22.3336 15.8744 22.1436 16.2928L21.9435 16.7054L23.2812 17.7755C23.5289 17.9743 23.6916 18.2598 23.7363 18.5742C23.7811 18.8886 23.7045 19.2083 23.5222 19.4683C23.3398 19.7282 23.0654 19.9091 22.7545 19.9741C22.4437 20.0391 22.1198 19.9834 21.8485 19.8182L21.7198 19.7282L20.5496 18.7918C19.5579 19.9578 18.324 20.8937 16.9339 21.5345C15.5437 22.1752 14.0307 22.5055 12.5 22.5023C11.0293 22.5059 9.57416 22.2012 8.2284 21.608C6.88264 21.0148 5.67612 20.1462 4.68663 19.0581L4.44911 18.7918L3.28023 19.7282C3.03206 19.9276 2.71715 20.0249 2.39973 20.0001C2.08231 19.9753 1.78631 19.8304 1.57212 19.5948C1.35793 19.3592 1.24169 19.0508 1.24711 18.7325C1.25253 18.4141 1.3792 18.1099 1.60129 17.8817L1.71756 17.7755L3.0552 16.7054C2.84827 16.2951 2.66666 15.8726 2.51139 15.4402L2.36638 15.0014H1.24875C0.930119 15.0011 0.623644 14.8791 0.391948 14.6603C0.160252 14.4416 0.0208238 14.1426 0.00215028 13.8245C-0.0165232 13.5065 0.0869681 13.1932 0.291479 12.9489C0.495989 12.7046 0.786082 12.5475 1.10249 12.5099L1.24875 12.5011H1.92383C1.88806 11.8253 1.91694 11.1475 2.01009 10.4772L2.09385 9.96336L3.77028 1.01987C3.80984 0.80903 3.90299 0.611917 4.04077 0.447491C4.17855 0.283065 4.35632 0.156859 4.55698 0.0810139C4.75765 0.00516836 4.97445 -0.0177649 5.18654 0.01442C5.39863 0.046605 5.59888 0.132825 5.768 0.264787L5.88302 0.364798L8.90085 3.38388C9.09531 3.57818 9.3484 3.70296 9.62093 3.73892L9.7847 3.75017H15.2153C15.4901 3.7502 15.7572 3.65969 15.9754 3.49264L16.0991 3.38388L19.117 0.366048C19.278 0.205114 19.4798 0.0911836 19.7008 0.0365472C19.9218 -0.0180893 20.1534 -0.0113584 20.3709 0.0560138ZM19.2082 3.81018L17.8668 5.15033C17.5188 5.49884 17.1055 5.77537 16.6505 5.96413C16.1955 6.15289 15.7079 6.25018 15.2153 6.25045H9.7847C8.79054 6.24991 7.83728 5.85466 7.13441 5.15158L5.78926 3.81018L4.54912 10.4234C4.42064 11.108 4.38073 11.8063 4.43036 12.5011H6.24931C6.58087 12.5011 6.89884 12.6329 7.13329 12.8673C7.36774 13.1017 7.49945 13.4197 7.49945 13.7513C7.49945 14.0828 7.36774 14.4008 7.13329 14.6353C6.89884 14.8697 6.58087 15.0014 6.24931 15.0014H5.63424C5.8795 15.0022 6.11907 15.0753 6.32303 15.2115C6.52698 15.3477 6.68627 15.541 6.78098 15.7673C6.87569 15.9935 6.90162 16.2426 6.85553 16.4835C6.80944 16.7244 6.69337 16.9464 6.52184 17.1217L6.40308 17.2292C7.16076 18.1019 8.09746 18.8012 9.1495 19.2797C10.2015 19.7582 11.3443 20.0045 12.5 20.002C13.5992 20.0048 14.6873 19.7822 15.6971 19.3478C16.7068 18.9135 17.6168 18.2766 18.3706 17.4767L18.5957 17.2267C18.3945 17.0653 18.2482 16.8457 18.1767 16.5979C18.1053 16.3502 18.1122 16.0863 18.1965 15.8427C18.2809 15.599 18.4385 15.3873 18.6478 15.2367C18.8571 15.0861 19.1079 15.0039 19.3658 15.0014H18.7507C18.4191 15.0014 18.1012 14.8697 17.8667 14.6353C17.6323 14.4008 17.5006 14.0828 17.5006 13.7513C17.5006 13.4197 17.6323 13.1017 17.8667 12.8673C18.1012 12.6329 18.4191 12.5011 18.7507 12.5011H20.5696C20.6189 11.8063 20.5785 11.108 20.4496 10.4234L19.2082 3.81018ZM14.8678 15.0677C14.9413 15.2145 14.9851 15.3744 14.9968 15.5382C15.0085 15.702 14.9878 15.8665 14.9359 16.0223C14.884 16.1781 14.8019 16.3221 14.6944 16.4462C14.5868 16.5703 14.4558 16.6719 14.3089 16.7454L13.6176 17.0904C13.2706 17.2638 12.888 17.3541 12.5 17.3541C12.112 17.3541 11.7294 17.2638 11.3824 17.0904L10.691 16.7454C10.3943 16.5972 10.1686 16.3371 10.0636 16.0225C9.95853 15.7079 9.98278 15.3644 10.131 15.0677C10.2792 14.7709 10.5392 14.5452 10.8538 14.4402C11.1685 14.3352 11.5119 14.3594 11.8087 14.5076L12.5 14.8539L13.1913 14.5089C13.4878 14.3608 13.8309 14.3365 14.1452 14.4413C14.4595 14.5461 14.7194 14.7714 14.8678 15.0677ZM9.37465 8.75073C9.87199 8.75073 10.349 8.94829 10.7006 9.29996C11.0523 9.65163 11.2499 10.1286 11.2499 10.6259C11.2499 11.1233 11.0523 11.6002 10.7006 11.9519C10.349 12.3036 9.87199 12.5011 9.37465 12.5011C8.87732 12.5011 8.40035 12.3036 8.04868 11.9519C7.69701 11.6002 7.49945 11.1233 7.49945 10.6259C7.49945 10.1286 7.69701 9.65163 8.04868 9.29996C8.40035 8.94829 8.87732 8.75073 9.37465 8.75073ZM15.6253 8.75073C16.1227 8.75073 16.5996 8.94829 16.9513 9.29996C17.303 9.65163 17.5006 10.1286 17.5006 10.6259C17.5006 11.1233 17.303 11.6002 16.9513 11.9519C16.5996 12.3036 16.1227 12.5011 15.6253 12.5011C15.128 12.5011 14.651 12.3036 14.2994 11.9519C13.9477 11.6002 13.7501 11.1233 13.7501 10.6259C13.7501 10.1286 13.9477 9.65163 14.2994 9.29996C14.651 8.94829 15.128 8.75073 15.6253 8.75073Z" fill="black"/>
</svg>
