<svg width="25" height="22" viewBox="0 0 25 22" fill="none" xmlns="http://www.w3.org/2000/svg">
<path d="M10.343 12.2794C10.343 12.6141 10.2419 12.9413 10.0525 13.2196C9.86316 13.4979 9.594 13.7147 9.27908 13.8428C8.96415 13.9709 8.61762 14.0044 8.28331 13.9391C7.94899 13.8738 7.6419 13.7127 7.40087 13.476C7.15984 13.2393 6.99569 12.9378 6.92919 12.6095C6.86269 12.2813 6.89682 11.941 7.02727 11.6318C7.15771 11.3226 7.37861 11.0583 7.66203 10.8724C7.94545 10.6864 8.27867 10.5872 8.61954 10.5872C9.07663 10.5872 9.51499 10.7655 9.83821 11.0828C10.1614 11.4002 10.343 11.8306 10.343 12.2794ZM16.3751 10.5872C16.0342 10.5872 15.701 10.6864 15.4176 10.8724C15.1342 11.0583 14.9133 11.3226 14.7828 11.6318C14.6524 11.941 14.6183 12.2813 14.6848 12.6095C14.7513 12.9378 14.9154 13.2393 15.1564 13.476C15.3975 13.7127 15.7046 13.8738 16.0389 13.9391C16.3732 14.0044 16.7197 13.9709 17.0346 13.8428C17.3496 13.7147 17.6187 13.4979 17.8081 13.2196C17.9975 12.9413 18.0986 12.6141 18.0986 12.2794C18.0986 11.8306 17.917 11.4002 17.5938 11.0828C17.2706 10.7655 16.8322 10.5872 16.3751 10.5872ZM23.7257 13.3561C23.4413 13.4839 23.1325 13.5506 22.8198 13.5518C22.6812 13.5513 22.543 13.5375 22.4072 13.5105V17.3561C22.4058 18.5899 21.906 19.7728 21.0175 20.6452C20.1289 21.5176 18.9243 22.0084 17.6677 22.0098H7.32694C6.07038 22.0084 4.86569 21.5176 3.97717 20.6452C3.08865 19.7728 2.58885 18.5899 2.58743 17.3561V13.5095C2.45098 13.537 2.31202 13.5508 2.17272 13.5507C1.86078 13.5499 1.55264 13.4835 1.26898 13.3561C0.826232 13.1651 0.463173 12.8313 0.239874 12.4101C0.0165753 11.9889 -0.0535808 11.5055 0.0410138 11.0398L1.80971 1.73255C1.86419 1.44932 1.97703 1.18001 2.14133 0.941154C2.30563 0.702295 2.51791 0.498925 2.76514 0.343527C3.01237 0.188129 3.28934 0.083982 3.57905 0.0374785C3.86875 -0.00902496 4.16508 0.00309632 4.44984 0.0730984L4.50047 0.0868478L10.1017 1.70188H14.8994L20.5006 0.0868478L20.5513 0.0730984C20.8363 0.00312299 21.1328 -0.0088836 21.4227 0.0378168C21.7126 0.0845172 21.9897 0.188938 22.237 0.34466C22.4842 0.500382 22.6965 0.704115 22.8606 0.943336C23.0247 1.18256 23.1373 1.45221 23.1914 1.73572L24.9601 11.043C25.0534 11.509 24.9819 11.9922 24.7575 12.4129C24.533 12.8335 24.169 13.1663 23.7257 13.3561ZM17.2627 3.66487L22.0841 9.78547L20.7311 2.66434L17.2627 3.66487ZM2.91057 9.78547L7.73195 3.66487L4.26349 2.66434L2.91057 9.78547ZM19.822 17.3561V11.061L14.4481 4.24129H10.5466L5.17262 11.061V17.3561C5.17262 17.9171 5.39959 18.4552 5.8036 18.8519C6.20762 19.2486 6.75558 19.4714 7.32694 19.4714H11.2047V18.7311L9.86043 17.4101C9.6176 17.1716 9.48118 16.8482 9.48118 16.5111C9.48118 16.1739 9.6176 15.8505 9.86043 15.6121C10.1033 15.3736 10.4326 15.2397 10.776 15.2397C11.1194 15.2397 11.4488 15.3736 11.6916 15.6121L12.4973 16.4042L13.3063 15.6089C13.5491 15.3705 13.8784 15.2365 14.2219 15.2365C14.5653 15.2365 14.8946 15.3705 15.1374 15.6089C15.3803 15.8473 15.5167 16.1707 15.5167 16.5079C15.5167 16.8451 15.3803 17.1685 15.1374 17.4069L13.7899 18.7311V19.4714H17.6677C18.2391 19.4714 18.787 19.2486 19.191 18.8519C19.5951 18.4552 19.822 17.9171 19.822 17.3561Z" fill="black"/>
</svg>
