<svg width="50" height="54" viewBox="0 0 50 54" fill="none" xmlns="http://www.w3.org/2000/svg">
<path d="M15.7895 54L10.5263 50.0488V39.5122H2.63158V14.4878H0V9.21951H10.5263V5.26829H6.57895V0H19.7368V5.26829H15.7895V9.21951H26.3158V14.4878H23.6842V39.5122H15.7895V54ZM7.89474 34.2439H18.421V30.2927H11.8421V26.3415H18.421V22.3902H11.8421V18.439H18.421V14.4878H7.89474V34.2439ZM28.9474 52.6829V30.2927C28.9474 29.0195 29.1667 27.9659 29.6053 27.1317C30.0439 26.2976 30.5044 25.5732 30.9868 24.9585C31.4693 24.3439 31.9079 23.8504 32.3026 23.4781C32.6974 23.1059 32.8947 22.7432 32.8947 22.3902V21.0732H30.2632V15.8049H48.6842V21.0732H46.0526V22.3902C46.0526 22.7415 46.2719 23.1366 46.7105 23.5756C47.1491 24.0146 47.6316 24.5415 48.1579 25.1561C48.6403 25.7707 49.0684 26.4951 49.4421 27.3293C49.8158 28.1634 50.0017 29.1512 50 30.2927V52.6829H28.9474ZM34.2105 31.6098H44.7368V30.2927C44.7368 29.6341 44.5395 29.0634 44.1447 28.5805C43.75 28.0976 43.3114 27.5707 42.8289 27C42.3465 26.4293 41.886 25.7927 41.4474 25.0902C41.0088 24.3878 40.7895 23.4878 40.7895 22.3902V21.0732H38.1579V22.3902C38.1579 23.4439 37.9491 24.322 37.5316 25.0244C37.114 25.7268 36.6649 26.3634 36.1842 26.9341C35.7035 27.5049 35.2535 28.0431 34.8342 28.5489C34.4149 29.0546 34.207 29.6359 34.2105 30.2927V31.6098ZM34.2105 47.4146H44.7368V43.4634H34.2105V47.4146Z" fill="#22C55E"/>
</svg>
